<svg height="512pt" viewBox="-5 0 512 512.00002" width="512pt" xmlns="http://www.w3.org/2000/svg"><path d="m501.066406 261.46875c0 138.363281-112.167968 250.53125-250.535156 250.53125-138.363281 0-250.53125-112.167969-250.53125-250.53125 0-138.367188 112.167969-250.535156 250.53125-250.535156 138.367188 0 250.535156 112.167968 250.535156 250.535156zm0 0" fill="#f5585c"/><path d="m401.671875 385.859375c-2.148437-7.898437-2.90625-16.117187-2.238281-24.277344l5.746094-57.980469c1.953124-23.644531-1.652344-47.335937-12.121094-68.625-27.042969-55.015624-20.839844-59.007812-21.679688-113.605468 0-11.152344-9.039062-20.195313-20.195312-20.195313-11.152344 0-20.195313 9.042969-20.195313 20.195313 0 222.03125.414063 205.738281-.957031 212.25v29.074218c0 24.496094-19.929688 44.425782-44.425781 44.425782-16.269531 0-72.375 0-110.550781 0 16.984374 23.617187 40.21875 42.113281 67.183593 53.3125.164063.070312.332031.136718.5.210937 20.832031 8.796875 35.34375 27.613281 39.230469 49.398438 52.171875-6.53125 99.355469-29.105469 136.460938-62.628907zm0 0" fill="#f9d6bf"/><path d="m100.042969 101.882812-6.152344-5.699218c-9.480469-8.789063-24.429687-8.21875-33.214844 1.265625-8.785156 9.480469-8.214843 24.429687 1.265625 33.214843l38.101563 35.304688zm0 0" fill="#f9d6bf"/><path d="m74.441406 112.996094c-5.816406-5.390625-8.261718-13.09375-7.269531-20.4375-2.375 1.214844-4.585937 2.828125-6.496094 4.890625-8.785156 9.480469-8.214843 24.429687 1.265625 33.214843l38.101563 35.304688v-29.25zm0 0" fill="#efc1a8"/><path d="m286.5625 0c-15.320312 0-127.953125 0-143.136719 0-24.496093 0-44.421875 19.929688-44.421875 44.425781v319.222657c0 24.496093 19.925782 44.425781 44.421875 44.425781h143.136719c24.496094 0 44.425781-19.925781 44.425781-44.425781v-319.222657c0-24.496093-19.929687-44.425781-44.425781-44.425781zm0 0" fill="#494970"/><path d="m153.503906 363.648438v-319.222657c0-24.496093 19.925782-44.425781 44.421875-44.425781-25.605469 0-48.265625 0-54.5 0-24.496093 0-44.421875 19.929688-44.421875 44.425781v319.222657c0 24.496093 19.925782 44.425781 44.421875 44.425781h54.5c-24.496093 0-44.421875-19.929688-44.421875-44.425781zm0 0" fill="#3a3a60"/><path d="m306.371094 363.648438c0 10.945312-8.867188 19.8125-19.808594 19.8125-15.152344 0-127.820312 0-143.136719 0-10.941406 0-19.8125-8.871094-19.8125-19.8125 0-10.085938 0-308.949219 0-319.222657 0-10.941406 8.871094-19.8125 19.8125-19.8125h10.914063c4.097656 0 7.414062 3.320313 7.414062 7.414063v4.703125c0 6.304687 5.160156 11.464843 11.46875 11.464843h83.542969c6.304687 0 11.464844-5.160156 11.464844-11.464843v-4.703125c0-4.09375 3.320312-7.414063 7.414062-7.414063h10.917969c10.941406 0 19.808594 8.871094 19.808594 19.8125zm0 0" fill="#e2e9f2"/><path d="m153.503906 363.648438v-319.222657c0-6.78125 1.53125-13.210937 4.261719-18.96875-1.023437-.535156-2.1875-.84375-3.421875-.84375h-10.917969c-10.941406 0-19.8125 8.871094-19.8125 19.8125v319.222657c0 10.945312 8.871094 19.8125 19.8125 19.8125h14.753907c-2.988282-5.96875-4.675782-12.695313-4.675782-19.8125zm0 0" fill="#c7d6e5"/><path d="m240.175781 31.789062h-24.542969c-3.960937 0-7.175781-3.214843-7.175781-7.175781 0-3.960937 3.214844-7.171875 7.175781-7.171875h24.542969c3.964844 0 7.175781 3.210938 7.175781 7.171875 0 3.960938-3.210937 7.175781-7.175781 7.175781zm0 0" fill="#5d5d84"/><path d="m190.460938 31.785156c-4.011719 0-7.175782-3.285156-7.175782-7.171875 0-3.558593 2.617188-6.4375 5.777344-7.03125.917969-.191406 1.875-.191406 2.800781 0 3.226563.601563 5.769531 3.539063 5.769531 7.03125 0 3.917969-3.171874 7.171875-7.171874 7.171875zm0 0" fill="#5d5d84"/><path d="m134.246094 225.84375c-7.726563 8.339844-20.757813 8.839844-29.101563 1.105469l-34.496093-31.960938c-8.34375-7.730469-8.839844-20.761719-1.109376-29.105469 7.730469-8.34375 20.761719-8.839843 29.101563-1.109374l34.5 31.964843c8.339844 7.730469 8.839844 20.761719 1.105469 29.105469zm0 0" fill="#f9d6bf"/><path d="m119.335938 212.421875-34.496094-31.964844c-5.769532-5.34375-7.78125-13.226562-5.921875-20.335937-3.476563 1.003906-6.738281 2.914062-9.378907 5.761718-7.730468 8.34375-7.234374 21.375 1.109376 29.105469l34.496093 31.964844c8.34375 7.730469 21.371094 7.234375 29.101563-1.109375 2.386718-2.574219 3.980468-5.59375 4.8125-8.765625-6.707032 1.933594-14.230469.433594-19.722656-4.65625zm0 0" fill="#efc1a8"/><path d="m399.503906 373.886719c-38.164062 62.660156-112.261718 91.757812-181.855468 73.660156 7.761718 4.988281 15.984374 9.3125 24.585937 12.882813.167969.070312.335937.140624.5.210937 20.835937 8.800781 35.34375 27.617187 39.230469 49.402344 52.175781-6.53125 99.359375-29.105469 136.460937-62.632813l-16.753906-61.550781c-1.066406-3.925781-1.792969-7.933594-2.167969-11.972656zm0 0" fill="#efc1a8"/><path d="m134.246094 338.191406c-7.726563 8.34375-20.757813 8.839844-29.101563 1.109375l-34.496093-31.964843c-8.34375-7.730469-8.839844-20.761719-1.109376-29.105469 7.730469-8.339844 20.761719-8.839844 29.101563-1.109375l34.5 31.964844c8.339844 7.730468 8.839844 20.761718 1.105469 29.105468zm0 0" fill="#f9d6bf"/><path d="m119.335938 324.769531-34.496094-31.964843c-5.769532-5.34375-7.78125-13.226563-5.921875-20.335938-3.476563 1.003906-6.738281 2.914062-9.378907 5.761719-7.730468 8.34375-7.234374 21.375 1.109376 29.105469l34.496093 31.964843c8.34375 7.730469 21.371094 7.234375 29.101563-1.109375 2.386718-2.574218 3.980468-5.59375 4.8125-8.765625-6.707032 1.933594-14.230469.433594-19.722656-4.65625zm0 0" fill="#efc1a8"/><path d="m134.246094 282.015625c-7.726563 8.34375-20.757813 8.839844-29.101563 1.109375l-34.496093-31.964844c-8.34375-7.726562-8.839844-20.757812-1.109376-29.101562 7.730469-8.34375 20.761719-8.839844 29.101563-1.109375l34.5 31.964843c8.339844 7.730469 8.839844 20.757813 1.105469 29.101563zm0 0" fill="#f9d6bf"/><path d="m119.335938 268.597656-34.496094-31.964844c-5.769532-5.347656-7.78125-13.226562-5.921875-20.339843-3.476563 1.003906-6.742188 2.917969-9.378907 5.765625-7.730468 8.34375-7.234374 21.371094 1.109376 29.101562l34.496093 31.964844c8.34375 7.730469 21.371094 7.234375 29.101563-1.109375 2.386718-2.570313 3.980468-5.59375 4.8125-8.765625-6.707032 1.9375-14.230469.4375-19.722656-4.652344zm0 0" fill="#efc1a8"/><g fill="#c7d6e5"><path d="m192.65625 356.28125c-4.25 0-7.5-3.488281-7.5-7.488281 0-4.144531 3.367188-7.5 7.5-7.5 4.152344 0 7.5 3.355469 7.5 7.5 0 4.136719-3.359375 7.488281-7.5 7.488281zm0 0"/><path d="m214.996094 356.28125c-4.1875 0-7.5-3.398438-7.5-7.488281 0-3.507813 2.421875-6.613281 6.03125-7.359375 4.507812-.90625 8.96875 2.515625 8.96875 7.359375 0 3.945312-3.199219 7.488281-7.5 7.488281zm0 0"/><path d="m237.328125 356.28125c-4.148437 0-7.5-3.375-7.5-7.488281 0-4.683594 4.265625-8.285157 8.96875-7.359375 3.671875.777344 6.03125 3.910156 6.03125 7.359375 0 4.121093-3.355469 7.488281-7.5 7.488281zm0 0"/></g><path d="m286.5625 24.613281h-10.914062c-4.09375 0-7.414063 3.320313-7.414063 7.414063v4.703125c0 6.304687-5.164063 11.46875-11.46875 11.46875-17.175781 0-66.359375 0-83.542969 0-6.304687 0-11.464844-5.164063-11.464844-11.46875v-4.703125c0-4.09375-3.320312-7.414063-7.414062-7.414063h-10.917969c-10.941406 0-19.8125 8.871094-19.8125 19.8125v33.890625c27.003907-7.230468 68.746094-10.949218 115.167969 11.9375 22.332031 11.011719 45.242188 17.601563 67.59375 18.480469 0-22.445313 0-49.953125 0-64.308594-.003906-10.941406-8.871094-19.8125-19.8125-19.8125zm0 0" fill="#fad964"/><path d="m229.570312 86.035156c3.046876 1.292969 6.121094 2.695313 9.210938 4.21875 22.332031 11.011719 45.242188 17.601563 67.59375 18.480469 0-14.664063 0-31.484375 0-45.390625-22.351562.875-45.261719 7.46875-67.59375 18.476562-3.09375 1.527344-6.164062 2.921876-9.210938 4.214844zm0 0" fill="#fab941"/><path d="m153.503906 44.425781c0-6.78125 1.53125-13.210937 4.261719-18.96875-1.066406-.558593-2.304687-.84375-3.421875-.84375h-10.917969c-10.941406 0-19.8125 8.871094-19.8125 19.8125v33.890625c8.582031-2.296875 18.65625-4.238281 29.890625-5.082031zm0 0" fill="#fab941"/><path d="m278.070312 174.382812h-126.144531c-7.335937 0-13.285156 5.945313-13.285156 13.285157 0 7.335937 5.949219 13.28125 13.285156 13.28125h126.144531c7.335938 0 13.285157-5.945313 13.285157-13.28125-.003907-7.339844-5.949219-13.285157-13.285157-13.285157zm0 0" fill="#bc4c2e"/><path d="m183.191406 187.667969c0-7.339844 5.949219-13.285157 13.285156-13.285157h-44.550781c-7.339843 0-13.285156 5.945313-13.285156 13.285157 0 7.335937 5.945313 13.28125 13.285156 13.28125h44.550781c-7.335937 0-13.285156-5.945313-13.285156-13.28125zm0 0" fill="#ab3829"/><path d="m277.664062 221.121094h-125.335937c-3.078125 0-5.574219 2.5-5.574219 5.578125v9.324219c0 14.050781 11.390625 25.445312 25.441406 25.445312h85.601563c14.050781 0 25.441406-11.394531 25.441406-25.445312v-9.324219c.003907-3.078125-2.496093-5.578125-5.574219-5.578125zm0 0" fill="#e6ac6d"/><path d="m278.1875 221.121094h-126.378906c-2.792969 0-5.054688-2.261719-5.054688-5.050782v-10.066406c0-2.789062 2.261719-5.054687 5.054688-5.054687h126.378906c2.792969 0 5.054688 2.265625 5.054688 5.054687v10.066406c0 2.789063-2.261719 5.050782-5.054688 5.050782zm0 0" fill="#f5585c"/><path d="m188.546875 216.070312v-10.066406c0-2.789062 2.261719-5.054687 5.050781-5.054687h-41.789062c-2.792969 0-5.054688 2.265625-5.054688 5.054687v10.066406c0 2.789063 2.261719 5.054688 5.054688 5.054688h41.789062c-2.789062-.003906-5.050781-2.265625-5.050781-5.054688zm0 0" fill="#d13044"/><path d="m146.753906 153.777344c0-19.597656 15.886719-35.480469 35.480469-35.480469h65.523437c19.597657 0 35.480469 15.882813 35.480469 35.480469 0 2.6875-2.175781 4.863281-4.859375 4.863281h-126.765625c-2.683593 0-4.859375-2.175781-4.859375-4.863281zm0 0" fill="#e6ac6d"/><path d="m188.28125 236.023438v-9.324219c0-3.078125 2.496094-5.578125 5.578125-5.578125h-41.53125c-3.078125 0-5.574219 2.5-5.574219 5.578125v9.324219c0 14.050781 11.390625 25.445312 25.441406 25.445312h41.527344c-14.050781 0-25.441406-11.394531-25.441406-25.445312zm0 0" fill="#ce8a4d"/><path d="m188.28125 153.777344c0-19.597656 15.886719-35.480469 35.484375-35.480469h-41.53125c-19.59375 0-35.480469 15.882813-35.480469 35.480469 0 2.6875 2.175782 4.863281 4.859375 4.863281h41.53125c-2.6875 0-4.863281-2.175781-4.863281-4.863281zm0 0" fill="#ce8a4d"/><path d="m278.113281 158.640625h-126.234375c-.714844 1.679687-1.160156 3.53125-1.269531 5.515625-.753906 13.957031 15.082031 22.265625 26.097656 14.117188 1.332031-.988282 3.171875-.988282 4.507813 0 5.773437 4.269531 13.648437 4.277343 19.429687 0 1.335938-.988282 3.171875-.988282 4.507813 0 5.664062 4.191406 13.804687 4.351562 19.691406 0 1.332031-.988282 3.171875-.988282 4.503906 0 5.773438 4.269531 13.652344 4.277343 19.433594 0 1.332031-.988282 3.171875-.988282 4.503906 0 11.015625 8.144531 26.855469-.160157 26.097656-14.117188-.105468-1.984375-.554687-3.835938-1.269531-5.515625zm0 0" fill="#afbc31"/><path d="m190.234375 164.15625c.105469-1.984375.554687-3.835938 1.269531-5.515625h-39.625c-.714844 1.679687-1.160156 3.53125-1.269531 5.515625-.753906 13.957031 15.082031 22.265625 26.097656 14.117188 1.332031-.988282 3.171875-.988282 4.507813 0 5.175781 3.828124 12.035156 4.21875 17.566406 1.179687-5.195312-2.816406-8.921875-8.355469-8.546875-15.296875zm0 0" fill="#9fa519"/><path d="m161.921875 221.121094 22.878906 22.882812c3.886719 3.886719 10.253907 3.886719 14.140625 0l22.878906-22.882812zm0 0" fill="#fad964"/><path d="m190.695312 246.84375c-1.546874-3.285156-2.414062-6.949219-2.414062-10.820312v-9.324219c0-3.078125 2.496094-5.578125 5.578125-5.578125h-31.9375l22.878906 22.882812c1.644531 1.644532 3.734375 2.585938 5.894531 2.839844zm0 0" fill="#fab941"/><path d="m232.996094 311.035156h-36c-7.457032 0-13.5-6.042968-13.5-13.5 0-7.457031 6.042968-13.5 13.5-13.5h36c7.457031 0 13.5 6.042969 13.5 13.5 0 7.457032-6.042969 13.5-13.5 13.5zm0 0" fill="#afbc31"/><path d="m214.996094 297.535156c0-7.457031 6.042968-13.5 13.5-13.5h-31.5c-7.457032 0-13.5 6.042969-13.5 13.5 0 7.457032 6.042968 13.5 13.5 13.5h31.5c-7.457032 0-13.5-6.042968-13.5-13.5zm0 0" fill="#9fa519"/></svg>