<?xml version="1.0" encoding="iso-8859-1"?>
<!-- Generator: Adobe Illustrator 19.0.0, SVG Export Plug-In . SVG Version: 6.00 Build 0)  -->
<svg version="1.1" id="Capa_1" xmlns="http://www.w3.org/2000/svg" xmlns:xlink="http://www.w3.org/1999/xlink" x="0px" y="0px"
	 viewBox="0 0 512 512" style="enable-background:new 0 0 512 512;" xml:space="preserve">
<linearGradient id="SVGID_1_" gradientUnits="userSpaceOnUse" x1="121.2792" y1="377.3332" x2="405.0693" y2="-9.0469" gradientTransform="matrix(1.0039 0 0 -1.0039 0.1922 516.5607)">
	<stop  offset="0" style="stop-color:#FFE7A5"/>
	<stop  offset="0.216" style="stop-color:#FFE29C"/>
	<stop  offset="0.577" style="stop-color:#FFD482"/>
	<stop  offset="1" style="stop-color:#FFBF5C"/>
</linearGradient>
<path style="fill:url(#SVGID_1_);" d="M511.87,257.033c0.292-3.284,0.063-6.688-0.792-10.12l-2.469-9.9
	c-22.233-89.143-90.312-159.668-178.615-185.031l0,0c-9.33-2.679-19.355-1.365-27.679,3.629L9.68,231.198
	c-7.597,4.559-10.437,12.29-9.494,19.506v171.234c-1.436,10.713,5.917,22.268,19.004,22.741l461.177,16.678
	c18.635,0.674,33.077-15.229,31.501-33.091V257.033H511.87z"/>
<linearGradient id="SVGID_2_" gradientUnits="userSpaceOnUse" x1="254.7838" y1="111.2827" x2="252.2138" y2="57.1127" gradientTransform="matrix(1.0039 0 0 -1.0039 0.1922 516.5607)">
	<stop  offset="0" style="stop-color:#FFBF5C;stop-opacity:0"/>
	<stop  offset="1" style="stop-color:#FFBF5C"/>
</linearGradient>
<path style="fill:url(#SVGID_2_);" d="M511.87,391.852L0.186,373.346v48.591c-1.436,10.713,5.917,22.267,19.004,22.741
	l461.177,16.678c18.635,0.675,33.077-15.23,31.501-33.091v-36.413H511.87z"/>
<linearGradient id="SVGID_3_" gradientUnits="userSpaceOnUse" x1="224.3983" y1="404.5728" x2="269.0683" y2="199.3328" gradientTransform="matrix(1.0039 0 0 -1.0039 0.1922 516.5607)">
	<stop  offset="0" style="stop-color:#FFE7A5"/>
	<stop  offset="0.216" style="stop-color:#FFE29C"/>
	<stop  offset="0.577" style="stop-color:#FFD482"/>
	<stop  offset="1" style="stop-color:#FFBF5C"/>
</linearGradient>
<path style="fill:url(#SVGID_3_);" d="M329.994,51.983L329.994,51.983c88.303,25.363,156.381,95.888,178.614,185.031l2.469,9.901
	c4.912,19.698-10.422,38.611-30.709,37.877L19.19,268.111c-19.774-0.715-26.477-26.733-9.51-36.914L302.315,55.611
	C310.64,50.618,320.664,49.303,329.994,51.983z"/>
<linearGradient id="SVGID_4_" gradientUnits="userSpaceOnUse" x1="299.6679" y1="379.703" x2="301.3879" y2="415.873" gradientTransform="matrix(1.0039 0 0 -1.0039 0.1922 516.5607)">
	<stop  offset="0" style="stop-color:#FFE7A5"/>
	<stop  offset="0.216" style="stop-color:#FFE29C"/>
	<stop  offset="0.577" style="stop-color:#FFD482"/>
	<stop  offset="1" style="stop-color:#FFBF5C"/>
</linearGradient>
<ellipse style="fill:url(#SVGID_4_);" cx="301.649" cy="122.468" rx="42.516" ry="25.393"/>
<linearGradient id="SVGID_5_" gradientUnits="userSpaceOnUse" x1="203.9751" y1="387.823" x2="82.5051" y2="450.503" gradientTransform="matrix(1.0039 0 0 -1.0039 0.1922 516.5607)">
	<stop  offset="0" style="stop-color:#FFE7A5"/>
	<stop  offset="0.216" style="stop-color:#FFE29C"/>
	<stop  offset="0.577" style="stop-color:#FFD482"/>
	<stop  offset="1" style="stop-color:#FFBF5C"/>
</linearGradient>
<ellipse style="fill:url(#SVGID_5_);" cx="423.354" cy="239.907" rx="42.516" ry="25.393"/>
<linearGradient id="SVGID_6_" gradientUnits="userSpaceOnUse" x1="385.2112" y1="352.3728" x2="386.3312" y2="375.9428" gradientTransform="matrix(1.0039 0 0 -1.0039 0.1922 516.5607)">
	<stop  offset="0" style="stop-color:#FFE7A5"/>
	<stop  offset="0.216" style="stop-color:#FFE29C"/>
	<stop  offset="0.577" style="stop-color:#FFD482"/>
	<stop  offset="1" style="stop-color:#FFBF5C"/>
</linearGradient>
<ellipse style="fill:url(#SVGID_6_);" cx="387.313" cy="154.403" rx="27.693" ry="16.542"/>
<linearGradient id="SVGID_7_" gradientUnits="userSpaceOnUse" x1="241.8907" y1="331.7428" x2="243.0107" y2="355.3128" gradientTransform="matrix(1.0039 0 0 -1.0039 0.1922 516.5607)">
	<stop  offset="0" style="stop-color:#FFE7A5"/>
	<stop  offset="0.216" style="stop-color:#FFE29C"/>
	<stop  offset="0.577" style="stop-color:#FFD482"/>
	<stop  offset="1" style="stop-color:#FFBF5C"/>
</linearGradient>
<ellipse style="fill:url(#SVGID_7_);" cx="243.431" cy="175.104" rx="27.693" ry="16.542"/>
<linearGradient id="SVGID_8_" gradientUnits="userSpaceOnUse" x1="139.0345" y1="310.5331" x2="139.6945" y2="324.5231" gradientTransform="matrix(1.0039 0 0 -1.0039 0.1922 516.5607)">
	<stop  offset="0" style="stop-color:#FFE7A5"/>
	<stop  offset="0.216" style="stop-color:#FFE29C"/>
	<stop  offset="0.577" style="stop-color:#FFD482"/>
	<stop  offset="1" style="stop-color:#FFBF5C"/>
</linearGradient>
<ellipse style="fill:url(#SVGID_8_);" cx="140.007" cy="199.821" rx="16.446" ry="9.823"/>
<linearGradient id="SVGID_9_" gradientUnits="userSpaceOnUse" x1="87.4507" y1="272.6129" x2="88.5707" y2="296.1828" gradientTransform="matrix(1.0039 0 0 -1.0039 0.1922 516.5607)">
	<stop  offset="0" style="stop-color:#FFE7A5"/>
	<stop  offset="0.216" style="stop-color:#FFE29C"/>
	<stop  offset="0.577" style="stop-color:#FFD482"/>
	<stop  offset="1" style="stop-color:#FFBF5C"/>
</linearGradient>
<ellipse style="fill:url(#SVGID_9_);" cx="88.386" cy="234.466" rx="27.693" ry="16.542"/>
<linearGradient id="SVGID_10_" gradientUnits="userSpaceOnUse" x1="469.0666" y1="116.5255" x2="496.8066" y2="62.3556" gradientTransform="matrix(1.0039 0 0 -1.0039 0.1922 516.5607)">
	<stop  offset="0" style="stop-color:#FFBF5C;stop-opacity:0"/>
	<stop  offset="1" style="stop-color:#FFBF5C"/>
</linearGradient>
<path style="fill:url(#SVGID_10_);" d="M511.87,428.266V257.033l0,0c-1.384,15.568-14.748,28.364-31.501,27.757l-93.127-3.368
	v176.567l93.127,3.368C499.004,462.031,513.445,446.127,511.87,428.266z"/>
<linearGradient id="SVGID_11_" gradientUnits="userSpaceOnUse" x1="63.9492" y1="140.8429" x2="64.8892" y2="219.0229" gradientTransform="matrix(1.0039 0 0 -1.0039 0.1922 516.5607)">
	<stop  offset="0" style="stop-color:#FFE7A5"/>
	<stop  offset="0.216" style="stop-color:#FFE29C"/>
	<stop  offset="0.577" style="stop-color:#FFD482"/>
	<stop  offset="1" style="stop-color:#FFBF5C"/>
</linearGradient>
<circle style="fill:url(#SVGID_11_);" cx="64.773" cy="343.462" r="40.297"/>
<linearGradient id="SVGID_12_" gradientUnits="userSpaceOnUse" x1="337.748" y1="145.8729" x2="338.468" y2="205.6629" gradientTransform="matrix(1.0039 0 0 -1.0039 0.1922 516.5607)">
	<stop  offset="0" style="stop-color:#FFE7A5"/>
	<stop  offset="0.216" style="stop-color:#FFE29C"/>
	<stop  offset="0.577" style="stop-color:#FFD482"/>
	<stop  offset="1" style="stop-color:#FFBF5C"/>
</linearGradient>
<circle style="fill:url(#SVGID_12_);" cx="339.557" cy="345.861" r="30.822"/>
<linearGradient id="SVGID_13_" gradientUnits="userSpaceOnUse" x1="144.5106" y1="99.1229" x2="145.1006" y2="147.5629" gradientTransform="matrix(1.0039 0 0 -1.0039 0.1922 516.5607)">
	<stop  offset="0" style="stop-color:#FFE7A5"/>
	<stop  offset="0.216" style="stop-color:#FFE29C"/>
	<stop  offset="0.577" style="stop-color:#FFD482"/>
	<stop  offset="1" style="stop-color:#FFBF5C"/>
</linearGradient>
<circle style="fill:url(#SVGID_13_);" cx="145.509" cy="397.402" r="24.971"/>
<linearGradient id="SVGID_14_" gradientUnits="userSpaceOnUse" x1="379.1154" y1="84.783" x2="379.4654" y2="113.523" gradientTransform="matrix(1.0039 0 0 -1.0039 0.1922 516.5607)">
	<stop  offset="0" style="stop-color:#FFE7A5"/>
	<stop  offset="0.216" style="stop-color:#FFE29C"/>
	<stop  offset="0.577" style="stop-color:#FFD482"/>
	<stop  offset="1" style="stop-color:#FFBF5C"/>
</linearGradient>
<circle style="fill:url(#SVGID_14_);" cx="381.029" cy="412.19" r="14.818"/>
<linearGradient id="SVGID_15_" gradientUnits="userSpaceOnUse" x1="246.1953" y1="124.4229" x2="246.5453" y2="153.1729" gradientTransform="matrix(1.0039 0 0 -1.0039 0.1922 516.5607)">
	<stop  offset="0" style="stop-color:#FFE7A5"/>
	<stop  offset="0.216" style="stop-color:#FFE29C"/>
	<stop  offset="0.577" style="stop-color:#FFD482"/>
	<stop  offset="1" style="stop-color:#FFBF5C"/>
</linearGradient>
<circle style="fill:url(#SVGID_15_);" cx="247.587" cy="372.385" r="14.818"/>
<linearGradient id="SVGID_16_" gradientUnits="userSpaceOnUse" x1="451.3618" y1="89.4229" x2="451.8819" y2="132.9329" gradientTransform="matrix(1.0039 0 0 -1.0039 0.1922 516.5607)">
	<stop  offset="0" style="stop-color:#FFE7A5"/>
	<stop  offset="0.216" style="stop-color:#FFE29C"/>
	<stop  offset="0.577" style="stop-color:#FFD482"/>
	<stop  offset="1" style="stop-color:#FFBF5C"/>
</linearGradient>
<circle style="fill:url(#SVGID_16_);" cx="453.673" cy="397.633" r="22.431"/>
<linearGradient id="SVGID_17_" gradientUnits="userSpaceOnUse" x1="168.5593" y1="291.9667" x2="47.0893" y2="363.9868" gradientTransform="matrix(1.0039 0 0 -1.0039 0.1922 516.5607)">
	<stop  offset="0" style="stop-color:#FFE7A5"/>
	<stop  offset="0.216" style="stop-color:#FFE29C"/>
	<stop  offset="0.577" style="stop-color:#FFD482"/>
	<stop  offset="1" style="stop-color:#FFBF5C"/>
</linearGradient>
<path style="fill:url(#SVGID_17_);" d="M292.613,278c1.064-2.87,1.639-5.885,1.639-8.998c0-19.165-21.496-34.701-48.013-34.701
	s-48.013,15.537-48.013,34.701c0,1.909,0.632,5.608,0.632,5.608c3.71,16.497,23.506,29.094,47.38,29.094
	C281.309,303.703,292.613,278,292.613,278z"/>
<g>
</g>
<g>
</g>
<g>
</g>
<g>
</g>
<g>
</g>
<g>
</g>
<g>
</g>
<g>
</g>
<g>
</g>
<g>
</g>
<g>
</g>
<g>
</g>
<g>
</g>
<g>
</g>
<g>
</g>
</svg>
