<?xml version="1.0" encoding="iso-8859-1"?>
<!-- Generator: Adobe Illustrator 19.0.0, SVG Export Plug-In . SVG Version: 6.00 Build 0)  -->
<svg version="1.1" id="Layer_1" xmlns="http://www.w3.org/2000/svg" xmlns:xlink="http://www.w3.org/1999/xlink" x="0px" y="0px"
	 viewBox="0 0 392.533 392.533" style="enable-background:new 0 0 392.533 392.533;" xml:space="preserve">
<path style="fill:#56ACE0;" d="M49.789,370.747h292.913c-0.646-32.776-5.301-75.636-15.58-85.786
	c-3.685-3.62-15.192-10.99-51.2-18.683c-7.046-1.552-14.222-2.78-21.333-3.879c0,0.065,0,0.065-0.065,0.129l-49.131,77.253
	c-2.004,3.168-5.495,5.042-9.18,5.042s-7.176-1.939-9.18-5.042l-49.067-77.188c0-0.065-0.065-0.065-0.065-0.129
	c-7.176,1.099-14.287,2.392-21.333,3.879c-36.008,7.758-47.515,15.063-51.2,18.683C55.09,295.111,50.306,337.972,49.789,370.747z"/>
<path style="fill:#FFFFFF;" d="M230.54,259.556c-22.82-2.069-45.834-2.069-68.59,0l34.327,54.044L230.54,259.556z"/>
<path style="fill:#194F82;" d="M342.508,269.511c-9.632-9.632-29.996-17.648-61.996-24.566c-55.143-11.895-113.39-11.895-168.469,0
	c-32.065,6.853-52.299,14.933-61.996,24.566c-22.044,21.786-22.303,97.293-22.109,112.291c0.065,5.947,4.978,10.731,10.925,10.731
	h314.828c5.947,0,10.796-4.784,10.925-10.731C364.682,366.804,364.423,291.297,342.508,269.511z M161.886,259.556
	c22.82-2.069,45.834-2.069,68.59,0l-34.263,53.98L161.886,259.556z M137.902,262.4c0,0.065,0.065,0.065,0.065,0.129l49.067,77.253
	c2.004,3.168,5.495,5.042,9.18,5.042s7.176-1.939,9.18-5.042l49.067-77.188c0-0.065,0.065-0.065,0.065-0.129
	c7.176,1.099,14.287,2.392,21.333,3.879c36.008,7.758,47.515,15.063,51.2,18.683c10.214,10.15,14.998,53.01,15.58,85.786H49.789
	c0.646-32.776,5.301-75.636,15.58-85.786c3.685-3.62,15.192-10.99,51.2-18.683C123.68,264.727,130.791,263.499,137.902,262.4z"/>
<path style="fill:#FFC10D;" d="M196.213,21.786c-46.933,0-85.075,38.141-85.075,85.075s38.141,85.075,85.075,85.075
	s85.075-38.141,85.075-85.075S243.146,21.786,196.213,21.786z"/>
<g>
	<path style="fill:#194F82;" d="M196.213,0C137.256,0,89.352,47.968,89.352,106.861c0,58.958,47.968,106.861,106.861,106.861
		c58.958,0,106.861-47.968,106.861-106.861S255.171,0,196.213,0z M196.213,192c-46.933,0-85.075-38.141-85.075-85.075
		S149.28,21.85,196.213,21.85s85.075,38.141,85.075,85.075S243.146,192,196.213,192z"/>
	<path style="fill:#194F82;" d="M196.213,148.04c-8.339,0-15.127-6.788-15.127-15.127c0-6.012-4.848-10.925-10.925-10.925
		c-6.012,0-10.925,4.848-10.925,10.925c0,16.614,10.99,30.578,26.053,35.297v6.465c0,6.012,4.848,10.925,10.925,10.925
		c6.012,0,10.925-4.848,10.925-10.925v-6.465c15.063-4.655,26.053-18.683,26.053-35.297c0-20.428-17.907-36.848-38.335-36.848
		c0.323-0.065,0,0-0.065,0c-7.628-0.776-13.705-7.176-13.705-15.063c0-8.339,6.788-15.127,15.127-15.127s15.127,6.788,15.127,15.127
		c0,6.012,4.848,10.925,10.925,10.925c6.077,0,10.925-4.848,10.925-10.925c0-16.614-10.99-30.578-26.053-35.297v-6.594
		c0-6.012-4.848-10.925-10.925-10.925s-10.925,4.848-10.925,10.925v6.529c-15.063,4.655-26.053,18.683-26.053,35.297
		c0,20.428,16.549,36.913,36.913,36.913c-0.323,0.065,0,0,0.065,0c7.628,0.776,15.063,7.111,15.063,14.998
		C211.34,141.253,204.552,148.04,196.213,148.04z"/>
</g>
<g>
</g>
<g>
</g>
<g>
</g>
<g>
</g>
<g>
</g>
<g>
</g>
<g>
</g>
<g>
</g>
<g>
</g>
<g>
</g>
<g>
</g>
<g>
</g>
<g>
</g>
<g>
</g>
<g>
</g>
</svg>
