<svg height="496pt" viewBox="-15 0 495 496" width="496pt" xmlns="http://www.w3.org/2000/svg"><path d="m424.5 214.160156v42.320313l-.238281.160156c-10.960938-19.519531-31.839844-32.640625-55.761719-32.640625-17.679688 0-33.679688 7.199219-45.28125 18.71875-11.519531 11.601562-18.71875 27.601562-18.71875 45.28125v-62.71875c0-7.519531-2.398438-14.722656-6.640625-20.480469-4.238281-5.839843-10.160156-10.402343-17.359375-12.800781-2.238281-3.359375-4.800781-6.398438-7.679688-9.121094l39.679688-14.878906c0 6.640625 2.71875 12.640625 7.039062 16.960938 4.320313 4.320312 10.320313 7.039062 16.960938 7.039062 13.28125 0 24-10.71875 24-24l43.199219 16.238281c12.5625 4.640625 20.800781 16.5625 20.800781 29.921875zm0 0" fill="#48cfad"/><path d="m40.5 256.160156v-42c0-13.359375 8.238281-25.28125 20.800781-29.921875l43.199219-16.238281c0 6.640625 2.71875 12.640625 7.039062 16.960938 4.320313 4.320312 10.320313 7.039062 16.960938 7.039062 13.28125 0 24-10.71875 24-24l37.359375 14c-17.839844 13.121094-29.359375 34.238281-29.359375 58v48c0-35.359375-28.640625-64-64-64-17.679688 0-33.679688 7.199219-45.28125 18.71875-4 4.082031-7.519531 8.640625-10.320312 13.679688zm0 0" fill="#48cfad"/><path d="m344.5 384 24 32 24-32 43.199219 16.238281c12.5625 4.640625 20.800781 16.5625 20.800781 29.921875v41.839844h-112v-33.121094c0-18.800781-11.039062-35.917968-28.160156-43.679687zm0 0" fill="#fcd770"/><path d="m148.660156 395.199219c-17.121094 7.761719-28.160156 24.878906-28.160156 43.679687v33.121094h-112v-41.839844c0-13.359375 8.238281-25.28125 20.800781-29.921875l43.199219-16.238281 24 32 24-32zm0 0" fill="#fcd770"/><path d="m255.378906 418.320312-22.878906-18.320312 24-32 39.121094 17.761719-23.121094 46.238281zm0 0" fill="#aab2bd"/><path d="m209.621094 418.320312-17.121094 13.679688-23.121094-46.238281 39.121094-17.761719 24 32zm0 0" fill="#aab2bd"/><path d="m296.5 488h-48l-8-40 14.878906-29.679688 17.121094 13.679688 23.121094-46.238281 20.71875 9.4375c17.121094 7.761719 28.160156 24.878906 28.160156 43.679687v49.121094zm0 0" fill="#e6e9ed"/><path d="m168.5 488h-48v-49.121094c0-18.800781 11.039062-35.917968 28.160156-43.679687l20.71875-9.4375 23.121094 46.238281 17.121094-13.679688 14.878906 29.679688-8 40zm0 0" fill="#e6e9ed"/><path d="m240.5 448 8 40h-32l8-40zm0 0" fill="#ff826e"/><path d="m232.5 400 22.878906 18.320312-14.878906 29.679688h-16l-14.878906-29.679688zm0 0" fill="#ff826e"/><path d="m432.5 288v32c0-6.640625-2.71875-12.640625-7.039062-16.960938-4.320313-4.320312-10.320313-7.039062-16.960938-7.039062h-80c-13.28125 0-24 10.71875-24 24v-32c0-17.679688 7.199219-33.679688 18.71875-45.28125 11.601562-11.519531 27.601562-18.71875 45.28125-18.71875 23.921875 0 44.800781 13.121094 55.761719 32.640625 5.277343 9.28125 8.238281 19.917969 8.238281 31.359375zm0 0" fill="#b27946"/><path d="m279.539062 87.039062c-4.320312 4.320313-7.039062 10.320313-7.039062 16.960938v-32c0-17.679688 7.199219-33.679688 18.71875-45.28125 11.601562-11.519531 27.601562-18.71875 45.28125-18.71875 35.359375 0 64 28.640625 64 64v32c0-6.640625-2.71875-12.640625-7.039062-16.960938-4.320313-4.320312-10.320313-7.039062-16.960938-7.039062-10.238281 0-20.078125-4.078125-27.28125-11.28125l-4.71875-4.71875-4 2.71875c-13.039062 8.640625-28.320312 13.28125-44 13.28125-6.640625 0-12.640625 2.71875-16.960938 7.039062zm0 0" fill="#b27946"/><path d="m192.5 72v32c0-6.640625-2.71875-12.640625-7.039062-16.960938-4.320313-4.320312-10.320313-7.039062-16.960938-7.039062h-80c-13.28125 0-24 10.71875-24 24v-32c0-17.679688 7.199219-33.679688 18.71875-45.28125 11.601562-11.519531 27.601562-18.71875 45.28125-18.71875 35.359375 0 64 28.640625 64 64zm0 0" fill="#b27946"/><path d="m160.5 296v24c0-6.640625-2.71875-12.640625-7.039062-16.960938-4.320313-4.320312-10.320313-7.039062-16.960938-7.039062h-1.359375c-14.480469 0-28.402344-5.761719-38.640625-16-10.238281 10.238281-24.160156 16-38.640625 16h-1.359375c-13.28125 0-24 10.71875-24 24v-32c0-11.519531 3.039062-22.320312 8.398438-31.601562 2.800781-5.039063 6.320312-9.597657 10.320312-13.679688 11.601562-11.519531 27.601562-18.71875 45.28125-18.71875 35.359375 0 64 28.640625 64 64zm0 0" fill="#b27946"/><g fill="#f0d0b4"><path d="m336.5 160c4.960938 0 9.679688-.878906 24-8v16c0 13.28125-10.71875 24-24 24-6.640625 0-12.640625-2.71875-16.960938-7.039062-4.320312-4.320313-7.039062-10.320313-7.039062-16.960938v-16c6.640625 5.039062 14.960938 8 24 8zm0 0"/><path d="m296.5 128c-6.640625 0-12.640625-2.71875-16.960938-7.039062-4.320312-4.320313-7.039062-10.320313-7.039062-16.960938s2.71875-12.640625 7.039062-16.960938c4.320313-4.320312 10.320313-7.039062 16.960938-7.039062v40c0 2.71875.238281 5.359375.800781 7.921875zm0 0"/><path d="m400.5 104c0 13.28125-10.71875 24-24 24l-.800781-.078125c.5625-2.5625.800781-5.203125.800781-7.921875v-40c6.640625 0 12.640625 2.71875 16.960938 7.039062 4.320312 4.320313 7.039062 10.320313 7.039062 16.960938zm0 0"/><path d="m376.5 80v40c0 2.71875-.238281 5.359375-.800781 7.921875-1.519531 7.839844-5.4375 14.878906-10.878907 20.398437-1.359374 1.359376-2.800781 2.558594-4.320312 3.679688-14.320312 7.121094-19.039062 8-24 8-9.039062 0-17.359375-2.960938-24-8-7.679688-5.839844-13.28125-14.320312-15.199219-24.078125-.5625-2.5625-.800781-5.203125-.800781-7.921875v-40c15.679688 0 30.960938-4.640625 44-13.28125l4-2.71875 4.71875 4.71875c7.203125 7.203125 17.042969 11.28125 27.28125 11.28125zm0 0"/><path d="m128.5 160c4.960938 0 9.679688-.878906 24-8v16c0 13.28125-10.71875 24-24 24-6.640625 0-12.640625-2.71875-16.960938-7.039062-4.320312-4.320313-7.039062-10.320313-7.039062-16.960938v-16c6.640625 5.039062 14.960938 8 24 8zm0 0"/><path d="m168.5 80v40c0 2.71875-.238281 5.359375-.800781 7.921875-1.519531 7.839844-5.4375 14.878906-10.878907 20.398437-1.359374 1.359376-2.800781 2.558594-4.320312 3.679688-14.320312 7.121094-19.039062 8-24 8-9.039062 0-17.359375-2.960938-24-8-7.679688-5.839844-13.28125-14.320312-15.199219-24.078125-.5625-2.5625-.800781-5.203125-.800781-7.921875v-40zm0 0"/><path d="m192.5 104c0 13.28125-10.71875 24-24 24l-.800781-.078125c.5625-2.5625.800781-5.203125.800781-7.921875v-40c6.640625 0 12.640625 2.71875 16.960938 7.039062 4.320312 4.320313 7.039062 10.320313 7.039062 16.960938zm0 0"/><path d="m88.5 120c0 2.71875.238281 5.359375.800781 7.921875l-.800781.078125c-6.640625 0-12.640625-2.71875-16.960938-7.039062-4.320312-4.320313-7.039062-10.320313-7.039062-16.960938 0-13.28125 10.71875-24 24-24zm0 0"/><path d="m96.5 376c4.960938 0 9.679688-.878906 24-8v16l-24 32-24-32v-16c6.640625 5.039062 14.960938 8 24 8zm0 0"/><path d="m160.5 320c0 13.28125-10.71875 24-24 24l-.800781-.078125c.5625-2.5625.800781-5.203125.800781-7.921875v-40c6.640625 0 12.640625 2.71875 16.960938 7.039062 4.320312 4.320313 7.039062 10.320313 7.039062 16.960938zm0 0"/><path d="m56.5 336c0 2.71875.238281 5.359375.800781 7.921875l-.800781.078125c-6.640625 0-12.640625-2.71875-16.960938-7.039062-4.320312-4.320313-7.039062-10.320313-7.039062-16.960938 0-13.28125 10.71875-24 24-24zm0 0"/><path d="m136.5 296v40c0 2.71875-.238281 5.359375-.800781 7.921875-1.519531 7.839844-5.4375 14.878906-10.878907 20.398437-1.359374 1.359376-2.800781 2.558594-4.320312 3.679688-14.320312 7.121094-19.039062 8-24 8-9.039062 0-17.359375-2.960938-24-8-7.679688-5.839844-13.28125-14.320312-15.199219-24.078125-.5625-2.5625-.800781-5.203125-.800781-7.921875v-40h1.359375c14.480469 0 28.402344-5.761719 38.640625-16 10.238281 10.238281 24.160156 16 38.640625 16zm0 0"/><path d="m368.5 376c4.960938 0 9.679688-.878906 24-8v16l-24 32-24-32v-16c6.640625 5.039062 14.960938 8 24 8zm0 0"/><path d="m432.5 320c0 13.28125-10.71875 24-24 24l-.800781-.078125c.5625-2.5625.800781-5.203125.800781-7.921875v-40c6.640625 0 12.640625 2.71875 16.960938 7.039062 4.320312 4.320313 7.039062 10.320313 7.039062 16.960938zm0 0"/><path d="m328.5 336c0 2.71875.238281 5.359375.800781 7.921875l-.800781.078125c-6.640625 0-12.640625-2.71875-16.960938-7.039062-4.320312-4.320313-7.039062-10.320313-7.039062-16.960938 0-13.28125 10.71875-24 24-24zm0 0"/><path d="m408.5 296v40c0 2.71875-.238281 5.359375-.800781 7.921875-1.519531 7.839844-5.4375 14.878906-10.878907 20.398437-1.359374 1.359376-2.800781 2.558594-4.320312 3.679688-14.320312 7.121094-19.039062 8-24 8-9.039062 0-17.359375-2.960938-24-8-7.679688-5.839844-13.28125-14.320312-15.199219-24.078125-.5625-2.5625-.800781-5.203125-.800781-7.921875v-40zm0 0"/><path d="m208.5 345.601562c7.039062 4.078126 15.28125 6.398438 24 6.398438 8.800781 0 16.960938-2.320312 24-6.398438v22.398438l-24 32-24-32zm0 0"/><path d="m277.78125 320c1.757812-5.039062 2.71875-10.398438 2.71875-16v-32c13.28125 0 24 10.71875 24 24 0 6.640625-2.71875 12.640625-7.039062 16.960938-4.320313 4.320312-10.320313 7.039062-16.960938 7.039062zm0 0"/><path d="m280.5 272v32c0 5.601562-.960938 10.960938-2.71875 16-2.402344 6.800781-6.320312 12.878906-11.359375 17.921875-2.960937 2.957031-6.242187 5.519531-9.921875 7.679687-7.039062 4.078126-15.199219 6.398438-24 6.398438-8.71875 0-16.960938-2.320312-24-6.398438-9.839844-5.761718-17.441406-14.800781-21.28125-25.601562-1.757812-5.039062-2.71875-10.398438-2.71875-16v-48c15.679688 0 30.960938-4.640625 44-13.28125l4-2.71875 4 2.71875c13.039062 8.640625 28.320312 13.28125 44 13.28125zm0 0"/><path d="m184.5 304c0 5.601562.960938 10.960938 2.71875 16h-2.71875c-6.640625 0-12.640625-2.71875-16.960938-7.039062-4.320312-4.320313-7.039062-10.320313-7.039062-16.960938 0-13.28125 10.71875-24 24-24zm0 0"/></g><path d="m280.5 256c-15.679688 0-30.960938-4.640625-44-13.28125l-4-2.71875-4 2.71875c-13.039062 8.640625-28.320312 13.28125-44 13.28125v16c-13.28125 0-24 10.71875-24 24v-56c0-23.761719 11.519531-44.878906 29.359375-58 11.921875-8.800781 26.71875-14 42.640625-14h3.121094c14 0 27.277344 5.441406 37.199218 14.878906 2.878907 2.722656 5.441407 5.761719 7.679688 9.121094 7.199219 2.398438 13.121094 6.960938 17.359375 12.800781 4.242187 5.757813 6.640625 12.960938 6.640625 20.480469v70.71875c0-13.28125-10.71875-24-24-24zm0 0" fill="#fcd770"/><path d="m464.5 430.175781c0-16.582031-10.433594-31.632812-25.953125-37.457031l-38.046875-14.261719v-6.777343c6.054688-5.433594 10.71875-12.359376 13.398438-20.222657 15.074218-2.585937 26.601562-15.664062 26.601562-31.457031v-32c0-11.832031-2.921875-22.976562-8-32.832031v-40.992188c0-16.582031-10.433594-31.632812-25.953125-37.457031l-38.046875-14.261719v-6.777343c6.054688-5.433594 10.71875-12.359376 13.398438-20.222657 15.074218-2.585937 26.601562-15.664062 26.601562-31.457031v-32c0-39.695312-32.296875-72-72-72s-72 32.304688-72 72v32c0 15.792969 11.527344 28.871094 26.601562 31.457031 2.679688 7.855469 7.34375 14.78125 13.398438 20.222657v6.777343l-30.0625 11.269531c-10.847656-8.742187-24.433594-13.726562-38.777344-13.726562h-3.160156c-16.121094 0-31.113281 4.832031-43.6875 13.070312l-28.3125-10.613281v-6.777343c6.054688-5.433594 10.71875-12.359376 13.398438-20.222657 15.074218-2.585937 26.601562-15.664062 26.601562-31.457031v-32c0-39.695312-32.296875-72-72-72s-72 32.304688-72 72v32c0 15.792969 11.527344 28.871094 26.601562 31.457031 2.679688 7.855469 7.34375 14.78125 13.398438 20.222657v6.777343l-38.039062 14.269531c-15.527344 5.816407-25.960938 20.867188-25.960938 37.449219v40.992188c-5.078125 9.855469-8 21-8 32.832031v32c0 15.792969 11.527344 28.871094 26.601562 31.457031 2.679688 7.855469 7.34375 14.78125 13.398438 20.222657v6.777343l-38.039062 14.261719c-15.527344 5.824219-25.960938 20.875-25.960938 37.457031v49.824219h112v16h240v-16h112zm-128-51.601562-19.9375 7.945312-52.0625-23.671875v-12.960937c8.007812-5.597657 14.457031-13.238281 18.648438-22.160157 4.976562-.414062 9.617187-1.925781 13.6875-4.367187 1.519531 14.25 12.289062 25.695313 26.257812 28.089844 2.6875 7.863281 7.351562 14.789062 13.40625 20.230469zm-105.441406 77.425781h2.882812l4.796875 24h-12.476562zm4.496094-16h-6.109376l-9.753906-19.503906 12.808594-10.25 12.808594 10.25zm-87.117188-53.488281-19.9375-7.9375v-6.894531c6.054688-5.433594 10.71875-12.359376 13.398438-20.222657 13.976562-2.394531 24.746093-13.839843 26.257812-28.089843 4.070312 2.441406 8.710938 3.953124 13.6875 4.367187 4.191406 8.921875 10.640625 16.5625 18.648438 22.160156v12.960938zm-83.9375-50.511719v-32.542969c11.710938-1.234375 22.761719-5.503906 32-12.769531 9.238281 7.273438 20.289062 11.535156 32 12.769531v32.542969c0 17.648438-14.351562 32-32 32s-32-14.351562-32-32zm32-104c30.871094 0 56 25.121094 56 56v4.449219c-4.726562-2.753907-10.144531-4.449219-16-4.449219h-1.375c-12.457031 0-24.167969-4.847656-32.96875-13.65625l-5.65625-5.664062-5.65625 5.664062c-8.808594 8.808594-20.511719 13.65625-32.96875 13.65625h-1.375c-5.855469 0-11.273438 1.695312-16 4.449219v-4.449219c0-30.878906 25.128906-56 56-56zm80.328125 77.953125c-4.9375-2.730469-8.328125-7.921875-8.328125-13.953125 0-5.894531 3.238281-11 8-13.777344v21.777344c0 2.007812.121094 3.992188.328125 5.953125zm-32.328125-3.730469c4.761719 2.777344 8 7.882813 8 13.777344s-3.238281 11-8 13.777344zm104 59.113282-16 21.328124-16-21.328124v-7.695313c5.070312 1.519531 10.441406 2.359375 16 2.359375s10.929688-.839844 16-2.359375zm-16-21.335938c-22.054688 0-40-17.945312-40-40v-40.359375c14.257812-1.304687 27.945312-6.089844 40-14.023437 12.054688 7.933593 25.742188 12.71875 40 14.023437v40.359375c0 22.054688-17.945312 40-40 40zm-26.542969 33.945312 15.488281 20.65625-26.21875 20.972657-14.964843-29.941407zm37.597657 20.65625 15.488281-20.65625 25.703125 11.679688-14.964844 29.941406zm44.945312-94.601562v-21.777344c4.761719 2.777344 8 7.882813 8 13.777344 0 6.03125-3.390625 11.222656-8.328125 13.953125.207031-1.960937.328125-3.945313.328125-5.953125zm136-16v4.449219c-4.726562-2.753907-10.144531-4.449219-16-4.449219h-80c-5.855469 0-11.273438 1.695312-16 4.449219v-4.449219c0-30.878906 25.128906-56 56-56s56 25.121094 56 56zm-104 45.777344c-4.761719-2.777344-8-7.882813-8-13.777344s3.238281-11 8-13.777344zm32 47.421875c5.015625 1.785156 10.382812 2.800781 16 2.800781s10.984375-1.023438 16-2.800781v.136719l-16 21.335937-16-21.335937zm16-13.199219c-17.648438 0-32-14.351562-32-32v-32h64v32c0 17.648438-14.351562 32-32 32zm48-34.222656v-27.546875c4.761719 2.777343 8 7.882812 8 13.777343 0 5.894532-3.238281 10.992188-8 13.769532zm0-119.601563v20.3125c-12.753906-11.457031-29.550781-18.488281-48-18.488281-22.609375 0-42.792969 10.496094-56 26.847656v-17.542968c0-17.105469-10.078125-32.3125-25.433594-39.214844l19.433594-7.289063c4.457031 12.320313 16.160156 21.199219 30 21.199219s25.542969-8.878906 29.992188-21.207031l34.433593 12.910156c9.316407 3.496094 15.574219 12.519531 15.574219 22.472656zm-80-62.175781c-17.648438 0-32-14.351562-32-32v-32.566406c13.839844-1.273438 27.175781-5.617188 38.96875-13.152344l.0625.0625c6.777344 6.777344 15.59375 11.257812 24.96875 12.914062v32.742188c0 17.648438-14.351562 32-32 32zm48-34.222656v-27.546875c4.761719 2.777343 8 7.882812 8 13.777343 0 5.894532-3.238281 10.992188-8 13.769532zm-48-101.777344c30.871094 0 56 25.121094 56 56v4.449219c-4.726562-2.753907-10.144531-4.449219-16-4.449219-8.0625 0-15.953125-3.273438-21.65625-8.96875l-9.328125-9.328125-9.488281 6.328125c-11.742188 7.824219-25.414063 11.96875-39.527344 11.96875-5.855469 0-11.273438 1.695312-16 4.449219v-4.449219c0-30.878906 25.128906-56 56-56zm-56 88c0-5.894531 3.238281-11 8-13.777344v27.546875c-4.761719-2.769531-8-7.875-8-13.769531zm56 64c5.617188 0 10.984375-1.023438 16-2.800781v2.800781c0 8.824219-7.175781 16-16 16s-16-7.175781-16-16v-2.800781c5.015625 1.777343 10.382812 2.800781 16 2.800781zm-100.839844 8c15.382813 0 29.65625 7.640625 38.183594 20.441406l1.519531 2.285156 2.601563.867188c11.085937 3.6875 18.535156 14.023438 18.535156 25.703125v43.152344c-2.480469-1.449219-5.152344-2.578125-8-3.3125v-17.136719h-8c-14.113281 0-27.785156-4.144531-39.527344-11.96875l-8.472656-5.648438-8.472656 5.648438c-11.742188 7.824219-25.414063 11.96875-39.527344 11.96875h-8v17.136719c-2.847656.742187-5.519531 1.863281-8 3.3125v-28.449219c0-35.289062 28.710938-64 64-64zm-107.160156-24c-17.648438 0-32-14.351562-32-32v-32h64v32c0 17.648438-14.351562 32-32 32zm48-34.222656v-27.546875c4.761719 2.777343 8 7.882812 8 13.777343 0 5.894532-3.238281 10.992188-8 13.769532zm-48-101.777344c30.871094 0 56 25.121094 56 56v4.449219c-4.726562-2.753907-10.144531-4.449219-16-4.449219h-80c-5.855469 0-11.273438 1.695312-16 4.449219v-4.449219c0-30.878906 25.128906-56 56-56zm-56 88c0-5.894531 3.238281-11 8-13.777344v27.546875c-4.761719-2.769531-8-7.875-8-13.769531zm56 64c5.617188 0 10.984375-1.023438 16-2.800781v2.800781c0 8.824219-7.175781 16-16 16s-16-7.175781-16-16v-2.800781c5.015625 1.777343 10.382812 2.800781 16 2.800781zm-64.425781 23.703125 34.425781-12.910156c4.457031 12.328125 16.160156 21.207031 30 21.207031s25.542969-8.878906 29.992188-21.207031l16.183593 6.070312c-13.695312 14.359375-22.175781 33.761719-22.175781 55.136719v2.847656c-13.207031-16.351562-33.390625-26.847656-56-26.847656-18.449219 0-35.246094 7.03125-48 18.488281v-20.3125c0-9.953125 6.257812-18.976562 15.574219-22.472656zm-23.574219 128.296875c0-5.894531 3.238281-11 8-13.777344v27.546875c-4.761719-2.769531-8-7.875-8-13.769531zm56 64c5.617188 0 10.984375-1.023438 16-2.800781v.136719l-16 21.335937-16-21.335937v-.136719c5.015625 1.777343 10.382812 2.800781 16 2.800781zm-80 80v-33.824219c0-9.953125 6.257812-18.976562 15.574219-22.472656l37.625-14.101563 26.800781 35.734376 26.726562-35.632813 8.226563 3.273437c-11.824219 10.472657-18.953125 25.664063-18.953125 41.925782v25.097656zm112-25.097656c0-15.644532 9.199219-29.933594 23.457031-36.414063l13.726563-6.242187 24.097656 48.179687 17.144531-13.714843 9.199219 18.410156-6.183594 30.878906h-33.441406v-32h-16v32h-32zm208 41.097656h-32v-32h-16v32h-33.441406l-6.175782-30.878906 9.203126-18.410156 17.140624 13.714843 24.089844-48.179687 13.726563 6.242187c14.257812 6.480469 23.457031 20.777344 23.457031 36.414063zm112-16h-96v-25.097656c0-16.261719-7.128906-31.460938-18.953125-41.925782l8.226563-3.28125 26.726562 35.640626 26.800781-35.734376 37.625 14.109376c9.316407 3.488281 15.574219 12.511718 15.574219 22.464843zm0 0"/></svg>