<svg height="512pt" viewBox="-11 0 511 512" width="512pt" xmlns="http://www.w3.org/2000/svg"><path d="m418.367188 196.675781-4.375-3.507812-168.761719-136.65625-168.761719 136.65625-4.375 3.507812-2.769531 2.230469v302.097656h351.8125v-302.097656zm0 0" fill="#ffeb99"/><path d="m355.171875 89.054688-109.941406-89.054688-244.730469 198.117188 27.707031 34.082031 41.117188-33.292969v-.019531l2.769531-2.210938 173.136719-140.164062 173.136719 140.164062 2.769531 2.210938v.019531l41.121093 33.292969 27.703126-34.082031-68.824219-55.742188zm0 0" fill="#ff9478"/><path d="m245.230469 67.503906 173.136719 140.164063 2.769531 2.210937v-10.972656l-2.769531-2.230469-4.375-3.507812-168.761719-136.65625-168.761719 136.65625-4.375 3.507812-2.769531 2.230469v10.972656l2.769531-2.210937zm0 0" fill="#ffde55"/><path d="m421.136719 50.242188h-65.964844v38.8125l65.964844 53.320312zm0 0" fill="#ff7956"/><path d="m421.136719 142.375v-10.996094l-65.964844-53.320312v10.996094zm0 0" fill="#ff6243"/><path d="m25.347656 490.011719h439.765625v21.988281h-439.765625zm0 0" fill="#57565c"/><path d="m201.253906 281.121094h-21.988281v-65.964844c.035156-30.34375 24.625-54.933594 54.972656-54.972656h21.988281c30.34375.039062 54.933594 24.628906 54.96875 54.972656h-21.988281c0-18.214844-14.765625-32.980469-32.980469-32.980469h-21.988281c-18.21875 0-32.984375 14.765625-32.984375 32.980469zm0 0" fill="#57565c"/><path d="m190.261719 270.128906h-21.988281v153.917969h153.917968v-153.917969zm54.96875 87.953125c-12.144531 0-21.988281-9.84375-21.988281-21.988281s9.84375-21.988281 21.988281-21.988281 21.988281 9.84375 21.988281 21.988281-9.84375 21.988281-21.988281 21.988281zm0 0" fill="#ff7956"/><path d="m267.21875 336.09375c0 12.144531-9.84375 21.988281-21.988281 21.988281s-21.988281-9.84375-21.988281-21.988281 9.84375-21.988281 21.988281-21.988281 21.988281 9.84375 21.988281 21.988281zm0 0" fill="#ffd422"/><path d="m278.214844 336.09375c.074218-18.214844-14.632813-33.042969-32.847656-33.121094-18.214844-.074218-33.042969 14.632813-33.117188 32.847656-.058594 14.027344 8.761719 26.558594 21.988281 31.234376v24.007812h21.988281v-24.007812c13.128907-4.644532 21.929688-17.035157 21.988282-30.960938zm-32.984375 10.992188c-6.070313 0-10.992188-4.921876-10.992188-10.992188 0-6.074219 4.921875-10.996094 10.992188-10.996094 6.074219 0 10.996093 4.921875 10.996093 10.996094 0 6.070312-4.921874 10.992188-10.996093 10.992188zm0 0" fill="#ff9811"/></svg>